# xmcd
#
# Track frame offsets:
#	150
#	13350
#	31350
#	61950
#
# Disc length: 1077 seconds
#
# Revision: 1
# Processed by: cddbd v1.5.1PL0 Copyright (c) Steve Scherf et al.
# Submitted via: CDex 1.50Beta5
#
DISCID=2f043304
DTITLE=ALI PROJECT - Alipro-Mania
DYEAR=1900
DGENRE=Pop
TTITLE0=Chaconne
TTITLE1=コッペリアの柩
TTITLE2=Babylone Cafe〜Novellette
TTITLE3=ある夏の午後
EXTD=
EXTT0=
EXTT1=
EXTT2=
EXTT3=
PLAYORDER=
